HIERARCHY
ROOT Hips
{
	OFFSET 0.00000 0.00000 0.00000
	CHANNELS 6 Xposition Yposition Zposition Zrotation Yrotation Xrotation 
	JOINT LHipJoint
	{
		OFFSET 0 0 0
		CHANNELS 3 Zrotation Yrotation Xrotation
		JOINT LeftHip
		{
			OFFSET 1.57093 -1.69714 0.87455
			CHANNELS 3 Zrotation Yrotation Xrotation
			JOINT LeftKnee
			{
				OFFSET 2.48056 -6.81529 0.00000
				CHANNELS 3 Zrotation Yrotation Xrotation
				JOINT LeftAnkle
				{
					OFFSET 2.62558 -7.21374 0.00000
					CHANNELS 3 Zrotation Yrotation Xrotation
					JOINT LeftToe
					{
						OFFSET 0.17911 -0.49210 2.16707
						CHANNELS 3 Zrotation Yrotation Xrotation
						End Site
						{
							OFFSET 0.00000 -0.00000 1.11848
						}
					}
				}
			}
		}
	}
	JOINT RHipJoint
	{
		OFFSET 0 0 0
		CHANNELS 3 Zrotation Yrotation Xrotation
		JOINT RightHip
		{
			OFFSET -1.69739 -1.69715 0.87455
			CHANNELS 3 Zrotation Yrotation Xrotation
			JOINT RightKnee
			{
				OFFSET -2.33658 -6.41972 0.00000
				CHANNELS 3 Zrotation Yrotation Xrotation
				JOINT RightAnkle
				{
					OFFSET -2.60856 -7.16696 0.00000
					CHANNELS 3 Zrotation Yrotation Xrotation
					JOINT RightToe
					{
						OFFSET -0.20854 -0.57296 2.11053
						CHANNELS 3 Zrotation Yrotation Xrotation
						End Site
						{
							OFFSET -0.00000 -0.00000 1.09848
						}
					}
				}
			}
		}
	}
	JOINT lowerback
	{
		OFFSET 0 0 0
		CHANNELS 3 Zrotation Yrotation Xrotation
		JOINT Chest
		{
			OFFSET 0.02563 2.15732 -0.03270
			CHANNELS 3 Zrotation Yrotation Xrotation
			JOINT Chest2
			{
				OFFSET 0.00281 2.14662 0.09285
				CHANNELS 3 Zrotation Yrotation Xrotation
				JOINT lowerneck
				{
					OFFSET 0 0 0
					CHANNELS 3 Zrotation Yrotation Xrotation
					JOINT Neck
					{
						OFFSET -0.04440 1.68397 0.17601
						CHANNELS 3 Zrotation Yrotation Xrotation
						JOINT Head
						{
							OFFSET 0.06040 1.66995 -0.35615
							CHANNELS 3 Zrotation Yrotation Xrotation
							End Site
							{
								OFFSET 0.02405 1.72189 -0.14044
							}
						}
					}
				}
				JOINT LeftCollar
				{
					OFFSET 0 0 0
					CHANNELS 3 Zrotation Yrotation Xrotation
					JOINT LeftShoulder
					{
						OFFSET 2.98955 1.90907 -0.21660
CHANNELS 3 Zrotation Xrotation Yrotation
						JOINT LeftElbow
						{
OFFSET 0 -4.913770 0.000000
CHANNELS 3 Zrotation Xrotation Yrotation
							JOINT LeftWrist
							{
OFFSET 0 -3.002910 -0.000000
CHANNELS 3 Zrotation Xrotation Yrotation
								JOINT lhand
								{
									OFFSET 0 0 0
CHANNELS 3 Zrotation Xrotation Yrotation
									JOINT LFingers
									{
OFFSET 0 -0.450920 -0.000000
CHANNELS 3 Zrotation Xrotation Yrotation
										End Site
										{
OFFSET 0 -0.363550 -0.000000
										}
									}
								}
								JOINT LThumb
								{
OFFSET 0 0.000000 0.000000
CHANNELS 3 Zrotation Xrotation Yrotation
									End Site
									{
OFFSET 0 -0.369100 0.369100
									}
								}
							}
						}
					}
				}
				JOINT RightCollar
				{
					OFFSET 0 0 0
					CHANNELS 3 Zrotation Yrotation Xrotation
					JOINT RightShoulder
					{
						OFFSET -2.80452 1.90886 -0.21152
CHANNELS 3 Zrotation Xrotation Yrotation
						JOINT RightElbow
						{
OFFSET 0 -4.867250 0.000000
CHANNELS 3 Zrotation Xrotation Yrotation
							JOINT RightWrist
							{
OFFSET 0 -3.171440 -0.000000
CHANNELS 3 Zrotation Xrotation Yrotation
								JOINT rhand
								{
									OFFSET 0 0 0
CHANNELS 3 Zrotation Xrotation Yrotation
									JOINT RFingers
									{
OFFSET 0 -0.419370 -0.000000
CHANNELS 3 Zrotation Xrotation Yrotation
										End Site
										{
OFFSET 0 -0.338100 -0.000000
										}
									}
								}
								JOINT RThumb
								{
OFFSET 0 0.000000 0.000000
CHANNELS 3 Zrotation Xrotation Yrotation
									End Site
									{
OFFSET 0 -0.343270 0.343270
									}
								}
							}
						}
					}
				}
			}
		}
	}
}
MOTION
Frames: 10
Frame Time: 0.008333333333333333
0.122395 14.433333 7.320445 -0.105797 4.218045 100.347159 0.000000 0.000000 0.000000 -16.662918 -15.302580 -41.364304 11.963514 18.375038 65.873030 -0.019002 -2.578374 1.818124 0.007879 -0.572217 -1.572447 0.000000 0.000000 0.000000 18.917937 7.628874 -43.668545 -7.798402 -15.968919 51.833134 -1.514275 -5.942868 22.086696 -0.605952 -4.982781 13.859373 -18.574606 5.962096 -20.727295 7.141917 12.289503 -7.643321 19.898806 7.706888 -2.359639 5.222057 -10.299390 -8.412532 -12.163690 -14.725709 -2.723706 -4.579194 -7.620323 -0.749548 0.000000 0.000000 0.000000 10.752716 -51.588854 -85.670725 82.058772 -59.760363 53.128158 39.804555 -48.740772 16.715676 0.000000 0.000000 0.000000 -7.125000 0.000000 0.000000 7.748310 8.785872 6.535671 0.000000 0.000000 0.000000 -72.324726 -8.778613 21.719844 -82.807634 -59.803512 -53.775342 -20.618267 -29.160661 -6.455406 0.000000 0.000000 0.000000 7.125000 0.000000 0.000000 4.512822 23.092006 2.388337
0.124064 14.466318 7.377021 -0.132069 4.165409 99.046048 0.000000 0.000000 0.000000 -17.416307 -13.913054 -40.731235 13.669109 19.010308 71.191167 -0.017218 -2.755797 2.572799 0.002677 -0.335428 -0.921520 0.000000 0.000000 0.000000 19.238644 7.117856 -42.866287 -7.531633 -15.763661 50.857266 -2.121474 -6.218734 26.292148 -0.450753 -4.307014 11.942079 -17.785898 5.735304 -19.749889 7.100227 11.571393 -7.569618 19.255653 7.237720 -2.274246 3.636299 -9.739629 -9.095605 -10.781745 -13.776953 -3.053848 -4.397230 -7.143343 -0.523504 0.000000 0.000000 0.000000 15.648552 -45.353652 -85.735158 77.671584 -59.417260 49.344159 42.677763 -51.980273 17.611001 0.000000 0.000000 0.000000 -7.125000 0.000000 0.000000 9.365172 6.883640 8.289948 0.000000 0.000000 0.000000 -67.041707 -6.222932 25.598524 -84.592106 -59.889212 -55.318363 -22.692368 -25.344853 -9.293996 0.000000 0.000000 0.000000 7.125000 0.000000 0.000000 3.040474 19.928090 1.824177
0.126362 14.490434 7.434765 0.025175 4.182385 98.303083 0.000000 0.000000 0.000000 -17.851949 -12.897664 -40.258323 14.899474 19.364309 74.933652 -0.022360 -3.267978 3.227270 0.000023 0.012794 0.035249 0.000000 0.000000 0.000000 19.543237 6.911213 -41.923029 -6.678931 -15.054955 47.648398 -2.508687 -6.786092 28.645102 -0.338281 -3.737401 10.339140 -16.803408 5.358478 -19.050207 6.963490 10.675867 -7.589775 18.413358 6.659590 -2.040720 1.884538 -9.123023 -10.214924 -9.677935 -12.719305 -3.325994 -3.780926 -6.606960 -0.134464 0.000000 0.000000 0.000000 20.096347 -38.907702 -85.484634 70.551929 -58.519351 43.241471 46.092583 -60.275424 20.420796 0.000000 0.000000 0.000000 -7.125000 0.000000 0.000000 10.792816 2.180096 10.566571 0.000000 0.000000 0.000000 -62.246935 -3.361178 28.336115 -83.862955 -59.857152 -54.687721 -24.834717 -22.096810 -10.741508 0.000000 0.000000 0.000000 7.125000 0.000000 0.000000 1.577160 18.175473 1.006584
0.125963 14.494179 7.490565 0.416851 4.315447 98.113100 0.000000 0.000000 0.000000 -17.927062 -12.354452 -39.890379 15.474630 19.501713 76.662221 -0.040211 -4.206710 3.930537 0.003311 0.369326 1.014870 0.000000 0.000000 0.000000 19.831087 7.064019 -40.800885 -5.412370 -13.832158 42.572263 -2.426839 -7.374994 28.104819 -0.302105 -3.533813 9.768651 -15.635842 4.840098 -18.689713 6.734887 9.623266 -7.648886 17.382193 5.976341 -1.600779 0.217969 -8.543145 -11.562253 -8.418341 -11.703707 -3.828957 -3.126757 -6.082621 0.176086 0.000000 0.000000 0.000000 24.139692 -32.517365 -84.759634 62.061878 -56.830314 36.062930 49.311694 -69.477506 23.981638 0.000000 0.000000 0.000000 -7.125000 0.000000 0.000000 11.733781 -3.694979 12.728550 0.000000 0.000000 0.000000 -58.128970 -0.091938 30.336140 -82.572463 -59.790472 -53.572094 -26.270731 -22.476858 -11.478747 0.000000 0.000000 0.000000 7.125000 0.000000 0.000000 0.613977 17.220384 0.404556
0.120752 14.473825 7.544088 1.024499 4.467491 98.319120 0.000000 0.000000 0.000000 -17.806688 -12.226146 -39.408808 15.234406 19.446477 75.941573 -0.066256 -5.202683 4.566081 0.011121 0.681467 1.872613 0.000000 0.000000 0.000000 19.874669 7.666043 -39.347594 -3.948364 -12.087975 36.048681 -1.902428 -8.432751 24.734547 -0.323196 -3.654219 10.105744 -14.318558 4.102734 -18.644793 6.132758 8.289472 -7.486167 16.458711 5.128292 -1.010680 -0.885907 -7.897215 -12.953738 -7.385371 -10.695450 -4.977071 -2.615100 -5.548122 0.201255 0.000000 0.000000 0.000000 28.130545 -26.130514 -83.472550 53.066805 -54.152087 28.644205 51.114281 -73.154556 25.592856 0.000000 0.000000 0.000000 -7.125000 0.000000 0.000000 12.282588 -6.607698 13.921386 0.000000 0.000000 0.000000 -54.705334 3.169156 32.205937 -81.351968 -59.715475 -52.517679 -28.041822 -23.625328 -11.864950 0.000000 0.000000 0.000000 7.125000 0.000000 0.000000 -0.588915 16.590510 -0.396591
0.108793 14.432477 7.589018 1.608427 4.514040 98.834148 0.000000 0.000000 0.000000 -17.681271 -12.289763 -38.819615 14.161078 19.161384 72.695075 -0.087156 -5.786703 4.751961 0.016401 0.827304 2.273808 0.000000 0.000000 0.000000 19.438285 8.875851 -37.667420 -2.568734 -9.956514 28.840633 -1.123158 -10.062344 19.153668 -0.390350 -4.011504 11.109097 -13.055557 3.296144 -18.641199 5.779782 6.896008 -7.469574 15.137894 4.235853 -0.210148 -2.129004 -7.315823 -14.413747 -5.950543 -9.709783 -6.206447 -1.945680 -5.004088 0.205867 0.000000 0.000000 0.000000 31.732320 -19.759797 -82.628302 43.981336 -50.247791 21.455959 54.347817 -74.792847 27.035248 0.000000 0.000000 0.000000 -7.125000 0.000000 0.000000 13.596451 -10.212814 16.213531 0.000000 0.000000 0.000000 -51.945796 6.497183 33.954911 -80.258990 -59.638381 -51.574239 -29.769431 -24.664810 -12.741498 0.000000 0.000000 0.000000 7.125000 0.000000 0.000000 -1.699865 15.382905 -1.188916
0.090909 14.375463 7.615245 1.928109 4.515907 99.624631 0.000000 0.000000 0.000000 -17.493448 -12.378671 -38.374727 12.449189 18.572116 67.403566 -0.079704 -5.390385 4.111363 0.013334 0.746175 2.050600 0.000000 0.000000 0.000000 18.711840 10.476384 -36.288835 -1.538278 -7.824201 22.184216 -0.294805 -12.098193 12.056937 -0.455323 -4.328471 12.002784 -12.154220 2.618167 -18.949014 5.454437 5.807186 -7.500411 14.108490 3.556684 0.459998 -3.209245 -6.903715 -15.728933 -4.551233 -8.922215 -7.059094 -1.327184 -4.559073 0.265648 0.000000 0.000000 0.000000 34.459478 -14.004259 -82.749336 35.653350 -45.258884 15.280377 54.950846 -72.792782 26.999062 0.000000 0.000000 0.000000 -7.125000 0.000000 0.000000 13.928019 -10.531349 16.692503 0.000000 0.000000 0.000000 -49.949466 10.519478 35.007004 -79.439622 -59.574374 -50.867528 -29.182444 -26.607603 -13.237173 0.000000 0.000000 0.000000 7.125000 0.000000 0.000000 -1.251021 14.902664 -0.887856
0.069445 14.311423 7.614247 1.759437 4.545212 100.583598 0.000000 0.000000 0.000000 -17.135051 -12.449681 -38.217175 10.376687 17.612944 60.735605 -0.039461 -3.728190 2.695661 0.014652 0.782211 2.149680 0.000000 0.000000 0.000000 17.986256 12.054922 -35.938511 -0.971080 -6.271240 17.574314 0.249087 -13.181967 5.629525 -0.448106 -4.294653 11.907155 -11.614044 2.184398 -19.588036 5.204874 5.171466 -7.557442 13.462655 3.154257 1.028967 -3.732248 -6.579241 -16.586761 -3.546533 -8.353482 -7.770226 -0.916852 -4.235105 0.239336 0.000000 0.000000 0.000000 36.657351 -9.151536 -83.489189 28.396580 -39.464262 10.380322 50.869023 -66.511152 25.791241 0.000000 0.000000 0.000000 -7.125000 0.000000 0.000000 12.091307 -6.732661 13.720937 0.000000 0.000000 0.000000 -48.850084 15.138582 35.371702 -78.639092 -59.506557 -50.177453 -24.930536 -30.536049 -11.149038 0.000000 0.000000 0.000000 7.125000 0.000000 0.000000 1.534357 17.716917 0.988871
0.051103 14.254991 7.588263 1.051470 4.567892 101.544628 0.000000 0.000000 0.000000 -16.547789 -12.755066 -38.327294 8.217308 16.272162 53.334332 -0.003390 -0.990447 0.693537 0.014530 0.777735 2.137494 0.000000 0.000000 0.000000 17.332162 13.315011 -37.088098 -0.833240 -5.823181 16.272329 0.294281 -11.513005 2.630599 -0.293590 -3.480526 9.619786 -11.212826 1.922485 -20.367791 4.986323 4.813462 -7.559552 12.986006 2.903434 1.608369 -3.878421 -6.253776 -17.098317 -2.658643 -7.855467 -8.259760 -0.598460 -3.958262 0.204562 0.000000 0.000000 0.000000 38.779894 -4.766796 -83.629895 22.180723 -33.166598 6.690700 44.633252 -56.386305 23.147935 0.000000 0.000000 0.000000 -7.125000 0.000000 0.000000 9.287258 -0.671572 9.529598 0.000000 0.000000 0.000000 -48.330935 19.274100 34.939672 -75.876136 -59.230974 -47.800103 -16.845436 -39.212537 -9.508650 0.000000 0.000000 0.000000 7.125000 0.000000 0.000000 7.224227 20.087446 4.336263
0.041199 14.215026 7.546482 0.136743 4.489934 102.223326 0.000000 0.000000 0.000000 -15.622051 -13.869614 -38.483124 6.245925 14.657494 45.951682 -0.014574 2.240129 -1.665755 0.010071 0.647899 1.780416 0.000000 0.000000 0.000000 16.992608 13.692616 -39.192839 -1.042671 -6.491785 18.218877 0.125529 -8.420075 2.939646 -0.203727 -2.906406 8.018262 -10.846668 1.644829 -20.869410 4.793516 4.403299 -7.491078 12.520103 2.628430 2.121038 -4.129502 -5.914251 -17.320771 -1.415060 -7.322662 -8.731401 -0.141665 -3.653728 0.144013 0.000000 0.000000 0.000000 40.414768 -0.563593 -80.261326 16.319582 -25.937673 3.792723 35.146124 -39.613958 18.504718 0.000000 0.000000 0.000000 -7.125000 0.000000 0.000000 4.475927 7.751941 3.868460 0.000000 0.000000 0.000000 -47.978428 22.034566 32.776968 -68.947805 -58.249113 -41.876251 -3.065507 -47.572361 -9.310472 0.000000 0.000000 0.000000 7.125000 0.000000 0.000000 16.959556 20.795695 10.292525
